<svg width="37" height="46" viewBox="0 0 37 46" fill="none" xmlns="http://www.w3.org/2000/svg">
    <path d="M37 43.5386C37 44.6431 36.1046 45.5386 35 45.5386H2C0.895433 45.5386 1.43051e-06 44.6431 1.43051e-06 43.5386V2.00011C1.43051e-06 0.895544 0.895432 0.000114441 2 0.000114441H35C36.1046 0.000114441 37 0.895545 37 2.00011V43.5386Z" fill="#C96868"/>
    <path d="M17.0769 33.4424H31.3077" stroke="white" stroke-width="3" stroke-linecap="round" stroke-linejoin="round"/>
    <path d="M29.8845 23.481H31.3076" stroke="white" stroke-width="3" stroke-linecap="round" stroke-linejoin="round"/>
    <path d="M17.0769 23.481H24.8896" stroke="white" stroke-width="3" stroke-linecap="round" stroke-linejoin="round"/>
    <path d="M17.0769 13.5193H31.3077" stroke="white" stroke-width="3" stroke-linecap="round" stroke-linejoin="round"/>
    <path d="M5.69238 13.5192L7.11546 14.9423L11.3847 10.6731" stroke="white" stroke-width="2" stroke-linecap="round" stroke-linejoin="round"/>
    <path d="M5.69238 23.4809L7.11546 24.904L11.3847 20.6348" stroke="white" stroke-width="2" stroke-linecap="round" stroke-linejoin="round"/>
    <path d="M5.69238 33.4423L7.11546 34.8654L11.3847 30.5962" stroke="white" stroke-width="2" stroke-linecap="round" stroke-linejoin="round"/>
</svg>